<?xml version="1.0" encoding="iso-8859-1"?>
<!-- Generator: Adobe Illustrator 22.1.0, SVG Export Plug-In . SVG Version: 6.00 Build 0)  -->
<svg xmlns="http://www.w3.org/2000/svg" xmlns:xlink="http://www.w3.org/1999/xlink" version="1.1" id="Layer_1_1_" x="0px" y="0px" viewBox="0 0 64 64" style="enable-background:new 0 0 64 64;" xml:space="preserve" width="512" height="512">
<linearGradient id="SVGID_1_" gradientUnits="userSpaceOnUse" x1="32" y1="1" x2="32" y2="63" gradientTransform="matrix(1 0 0 -1 0 64)">
	<stop offset="0" style="stop-color:#9F2FFF"/>
	<stop offset="1" style="stop-color:#0BB1D3"/>
</linearGradient>
<path style="fill:url(#SVGID_1_);" d="M36,27c0-0.552,0.448-1,1-1s1,0.448,1,1s-0.448,1-1,1S36,27.552,36,27z M27,28  c0.552,0,1-0.448,1-1s-0.448-1-1-1s-1,0.448-1,1S26.448,28,27,28z M33,25h-2v2h2V25z M32,37c2.206,0,4-1.794,4-4h-2  c0,1.103-0.897,2-2,2s-2-0.897-2-2h-2C28,35.206,29.794,37,32,37z M9.485,50.899L7,48.414v-2.216l7.926-1.761l0.151-0.132  c0.11-0.14,0.191-0.267,0.245-0.388c0.096-0.212-0.052-0.815-0.159-1.256c-0.183-0.742-0.389-1.583-0.11-2.375  c0.279-0.794,0.968-1.322,1.574-1.788c0.359-0.275,0.851-0.652,0.909-0.877c0.059-0.225-0.188-0.793-0.368-1.208  c-0.305-0.702-0.649-1.498-0.508-2.327c0.141-0.827,0.729-1.463,1.249-2.024c0.309-0.333,0.729-0.788,0.75-1.02  c0.031-0.372-0.107-0.766-0.268-1.223c-0.098-0.28-0.201-0.583-0.278-0.909c-0.018-0.077-0.032-0.155-0.046-0.234  C18.029,28.461,18,28.239,18,28v-9h-2v-2h2c0-0.661,0.062-1.307,0.151-1.944l-1.831-0.491l0.518-1.932l1.727,0.463  c0.188-0.646,0.423-1.27,0.698-1.874l-1.485-0.857l1-1.732l1.442,0.832c0.366-0.57,0.771-1.11,1.213-1.62l-1.159-1.16l1.414-1.414  l1.159,1.16c0.51-0.442,1.05-0.847,1.62-1.213l-0.832-1.442l1.732-1l0.857,1.485c0.312-0.142,0.632-0.27,0.956-0.389l-0.546-2.035  l1.932-0.519l0.533,1.987c0.619-0.131,1.256-0.21,1.902-0.256V1h2v2.051c0.318,0.023,0.632,0.057,0.943,0.1l0.491-1.831l1.932,0.519  l-0.463,1.726c0.646,0.188,1.27,0.423,1.873,0.698l0.857-1.485l1.732,1L39.534,5.22c0.57,0.366,1.11,0.771,1.62,1.213l1.159-1.16  l1.414,1.414l-1.159,1.16c0.442,0.51,0.847,1.05,1.213,1.62l1.442-0.832l1,1.732l-1.485,0.857c0.275,0.604,0.51,1.228,0.698,1.874  l1.727-0.463l0.518,1.932l-1.831,0.491C45.938,15.693,46,16.339,46,17h2v2h-2v9c0,0.239-0.029,0.461-0.068,0.676  c-0.013,0.079-0.027,0.156-0.046,0.233c-0.077,0.326-0.179,0.629-0.278,0.909c-0.16,0.457-0.299,0.851-0.268,1.222  c0.021,0.233,0.441,0.688,0.75,1.021c0.52,0.561,1.108,1.197,1.249,2.024c0.142,0.829-0.203,1.625-0.508,2.327  c-0.18,0.415-0.427,0.983-0.368,1.208c0.059,0.226,0.55,0.603,0.909,0.878c0.606,0.466,1.295,0.994,1.574,1.787  c0.278,0.792,0.072,1.634-0.11,2.376c-0.107,0.44-0.255,1.043-0.159,1.256c0.056,0.125,0.141,0.257,0.259,0.403l0.115,0.111  L57,46.198v2.216l-2.485,2.485c-0.488,0.488-0.996,0.948-1.515,1.394V63H11V52.293C10.482,51.847,9.973,51.387,9.485,50.899z M13,61  h6.004C18.352,59.843,18,58.535,18,57.171v-0.104c0-0.133,0.022-0.264,0.029-0.396c-1.783-0.762-3.464-1.702-5.029-2.812V61z M27,9  v2h10V9H27z M41.613,17l-1.334-4h-4.836C35.788,13.591,36,14.268,36,15s-0.212,1.409-0.556,2H41.613z M34,15  c0-0.737-0.405-1.375-1-1.722v3.443C33.595,16.375,34,15.737,34,15z M30,15c0,0.737,0.405,1.375,1,1.722v-3.443  C30.405,13.625,30,14.263,30,15z M23.721,13l-1.334,4h6.169C28.212,16.409,28,15.732,28,15s0.212-1.409,0.556-2H23.721z M23,21.376  c1.143-1.081,2.68-1.75,4.373-1.75c1.262,0,2.484,0.37,3.535,1.07L31,20.758V19h-8V21.376z M33,20.758l0.092-0.061  c1.051-0.7,2.273-1.07,3.535-1.07c1.693,0,3.23,0.668,4.373,1.75V19h-8C33,19,33,20.758,33,20.758z M43,24.142  c0.356,0.093,0.69,0.233,1,0.414V19h-1V24.142z M44,17c0-5.603-3.866-10.308-9.067-11.622C34.976,5.579,35,5.786,35,6v1h2  c1.103,0,2,0.897,2,2v2h1.279c0.862,0,1.625,0.55,1.897,1.368L43.72,17H44z M32,5c-0.552,0-1,0.449-1,1v1h2V6  C33,5.449,32.552,5,32,5z M29.067,5.378C23.866,6.692,20,11.397,20,17h0.28l1.545-4.633C22.096,11.55,22.858,11,23.721,11H25V9  c0-1.103,0.897-2,2-2h2V6C29,5.786,29.024,5.579,29.067,5.378z M20,19v5.556c0.31-0.181,0.644-0.322,1-0.414V19H20z M23,31  c0,4.962,4.037,9,9,9s9-4.038,9-9v-5c0-2.411-1.962-4.373-4.373-4.373c-0.866,0-1.705,0.254-2.426,0.734L33,23.162V24h-2v-0.838  l-1.201-0.801c-0.721-0.48-1.56-0.734-2.426-0.734C24.962,21.627,23,23.589,23,26V31z M40.402,44.558l-2.011-0.447  c-0.587,0.667-1.761,1.766-3.534,2.399c0.383,0.49,0.678,1.081,0.876,1.733C37.995,47.29,39.562,45.638,40.402,44.558z M32,47  c-1.084,0-2,1.374-2,3s0.916,3,2,3s2-1.374,2-3S33.084,47,32,47z M27,40.786v1.878C27.509,43.286,29.166,45,32,45  c2.828,0,4.494-1.721,5-2.336v-1.878C35.498,41.556,33.801,42,32,42S28.502,41.556,27,40.786z M23.598,44.558  c0.839,1.08,2.407,2.732,4.67,3.685c0.197-0.652,0.492-1.243,0.876-1.733c-1.773-0.634-2.947-1.732-3.534-2.399L23.598,44.558z   M27,49.875V61h10V49.875c-0.326,0.154-0.67,0.293-1.024,0.422C35.851,52.913,34.125,55,32,55s-3.851-2.087-3.976-4.704  C27.67,50.168,27.326,50.029,27,49.875z M51,53.859c-1.565,1.11-3.246,2.049-5.029,2.812C45.978,56.804,46,56.934,46,57.067v0.104  c0,1.364-0.352,2.672-1.004,3.829H51V53.859z M54.823,47.763l-12.29-2.731c-0.536,0.802-1.71,2.336-3.533,3.653V61h3.559  C43.487,59.938,44,58.595,44,57.171v-0.104c0-1.154-0.339-2.272-0.979-3.233C42.354,52.833,42,51.667,42,50.462V48h2v2.462  c0,0.808,0.237,1.591,0.686,2.263c0.395,0.593,0.694,1.234,0.913,1.901c2.795-1.255,5.325-2.963,7.502-5.141L54.823,47.763z   M44.624,33.421c-0.453-0.488-0.939-1.036-1.157-1.708c-0.165,0.065-0.337,0.116-0.511,0.159c-0.241,3.053-1.725,5.762-3.956,7.607  v2.719l7.669,1.704c-0.036-0.585,0.093-1.175,0.226-1.717c0.11-0.448,0.247-1.006,0.166-1.237c-0.082-0.231-0.538-0.582-0.905-0.863  c-0.654-0.502-1.396-1.072-1.627-1.963c-0.231-0.89,0.141-1.748,0.469-2.505c0.185-0.424,0.413-0.952,0.372-1.194  C45.328,34.181,44.938,33.759,44.624,33.421z M44,28c0-0.737-0.405-1.375-1-1.722v3.443c0.447-0.261,0.781-0.686,0.921-1.196  C43.968,28.346,44,28.172,44,28z M20,28c0,0.172,0.032,0.346,0.079,0.526c0.14,0.51,0.474,0.935,0.921,1.196v-3.443  C20.405,26.625,20,27.263,20,28z M17.331,43.902L25,42.198v-2.719c-2.231-1.845-3.715-4.554-3.956-7.607  c-0.175-0.043-0.346-0.094-0.511-0.159c-0.218,0.672-0.704,1.22-1.157,1.708c-0.313,0.338-0.704,0.76-0.745,1.001  c-0.041,0.243,0.188,0.771,0.372,1.195c0.328,0.757,0.7,1.615,0.469,2.506c-0.23,0.89-0.973,1.459-1.627,1.962  c-0.367,0.281-0.823,0.632-0.905,0.864c-0.081,0.23,0.056,0.788,0.166,1.236C17.238,42.727,17.368,43.317,17.331,43.902z   M9.177,47.763l1.723,1.722c2.177,2.178,4.707,3.886,7.502,5.141c0.219-0.666,0.518-1.307,0.913-1.9  C19.763,52.053,20,51.27,20,50.462V48h2v2.462c0,1.205-0.354,2.371-1.021,3.373C20.339,54.795,20,55.914,20,57.067v0.104  c0,1.424,0.513,2.767,1.441,3.829H25V48.684c-1.823-1.316-2.997-2.851-3.533-3.653L9.177,47.763z M33,57h-2v2h2V57z"/>
</svg>
